<svg width="1512" height="916" viewBox="0 0 1512 916" fill="none" xmlns="http://www.w3.org/2000/svg">
<rect width="1512" height="916" fill="#F7A253" fill-opacity="0.21"/>
<path fill-rule="evenodd" clip-rule="evenodd" d="M1436.43 436.611C1463.45 430.38 1485.9 414.751 1506.41 396.684C1524.82 380.475 1533.54 358.482 1547.65 338.664C1569.45 308.017 1617.41 285.717 1611.5 248.993C1605.82 213.774 1555.36 206.366 1523.44 188.384C1495.25 172.51 1468.79 154.434 1436.43 150.377C1400.46 145.869 1359.48 142.329 1331.26 164.296C1303.3 186.069 1305.46 226.404 1295.86 259.802C1286.8 291.348 1269.34 321.891 1276.81 353.823C1284.64 387.286 1305.67 419.489 1337.01 435.742C1366.92 451.259 1403.39 444.229 1436.43 436.611Z" fill="#4CC9F0"/>
<path fill-rule="evenodd" clip-rule="evenodd" d="M-13.1535 907.611C12.2677 901.38 33.3794 885.751 52.6769 867.684C69.9897 851.475 78.2003 829.482 91.4645 809.664C111.977 779.017 157.093 756.717 151.528 719.993C146.191 684.774 98.7197 677.366 68.6917 659.384C42.1823 643.51 17.2935 625.434 -13.1535 621.377C-46.987 616.869 -85.5317 613.329 -112.076 635.296C-138.384 657.069 -136.349 697.404 -145.375 730.802C-153.901 762.348 -170.32 792.891 -163.296 824.823C-155.935 858.286 -136.15 890.489 -106.674 906.742C-78.5319 922.259 -44.2337 915.229 -13.1535 907.611Z" fill="#7209B7"/>
<path fill-rule="evenodd" clip-rule="evenodd" d="M38.4268 307.611C65.4518 301.38 87.8954 285.751 108.411 267.684C126.816 251.475 135.544 229.482 149.645 209.664C171.452 179.017 219.415 156.717 213.499 119.993C207.825 84.7737 157.358 77.3655 125.436 59.384C97.2538 43.5096 70.7947 25.4344 38.4268 21.3773C2.45863 16.8689 -38.5179 13.3291 -66.7365 35.2964C-94.7047 57.0686 -92.5419 97.4044 -102.137 130.802C-111.201 162.348 -128.656 192.891 -121.189 224.823C-113.364 258.286 -92.3296 290.489 -60.9939 306.742C-31.0765 322.259 5.38568 315.229 38.4268 307.611Z" fill="#F48C06"/>
</svg>
