<svg width="215" height="60" viewBox="0 0 215 60" fill="none" xmlns="http://www.w3.org/2000/svg">
<path d="M6.524 11.344V31H1.736V11.344H6.524ZM26.6538 15.376L16.8538 38.42H11.7018L15.2858 30.468L8.92981 15.376H14.2778L17.8898 25.148L21.4738 15.376H26.6538ZM28.1332 23.16C28.1332 21.5547 28.4319 20.1453 29.0292 18.932C29.6452 17.7187 30.4759 16.7853 31.5212 16.132C32.5666 15.4787 33.7332 15.152 35.0212 15.152C36.1226 15.152 37.0839 15.376 37.9052 15.824C38.7452 16.272 39.3892 16.86 39.8372 17.588V15.376H44.6252V31H39.8372V28.788C39.3706 29.516 38.7172 30.104 37.8772 30.552C37.0559 31 36.0946 31.224 34.9932 31.224C33.7239 31.224 32.5666 30.8973 31.5212 30.244C30.4759 29.572 29.6452 28.6293 29.0292 27.416C28.4319 26.184 28.1332 24.7653 28.1332 23.16ZM39.8372 23.188C39.8372 21.9933 39.5012 21.0507 38.8292 20.36C38.1759 19.6693 37.3732 19.324 36.4212 19.324C35.4692 19.324 34.6572 19.6693 33.9852 20.36C33.3319 21.032 33.0052 21.9653 33.0052 23.16C33.0052 24.3547 33.3319 25.3067 33.9852 26.016C34.6572 26.7067 35.4692 27.052 36.4212 27.052C37.3732 27.052 38.1759 26.7067 38.8292 26.016C39.5012 25.3253 39.8372 24.3827 39.8372 23.188ZM53.5771 17.98C54.1371 17.1213 54.8371 16.4493 55.6771 15.964C56.5171 15.46 57.4505 15.208 58.4771 15.208V20.276H57.1611C55.9665 20.276 55.0705 20.5373 54.4731 21.06C53.8758 21.564 53.5771 22.46 53.5771 23.748V31H48.7891V15.376H53.5771V17.98ZM76.1937 22.936C76.1937 23.384 76.1657 23.8507 76.1097 24.336H65.2737C65.3484 25.3067 65.6564 26.0533 66.1977 26.576C66.7577 27.08 67.439 27.332 68.2417 27.332C69.4364 27.332 70.267 26.828 70.7337 25.82H75.8297C75.5684 26.8467 75.0924 27.7707 74.4017 28.592C73.7297 29.4133 72.8804 30.0573 71.8537 30.524C70.827 30.9907 69.679 31.224 68.4097 31.224C66.879 31.224 65.5164 30.8973 64.3217 30.244C63.127 29.5907 62.1937 28.6573 61.5217 27.444C60.8497 26.2307 60.5137 24.812 60.5137 23.188C60.5137 21.564 60.8404 20.1453 61.4937 18.932C62.1657 17.7187 63.099 16.7853 64.2937 16.132C65.4884 15.4787 66.8604 15.152 68.4097 15.152C69.9217 15.152 71.2657 15.4693 72.4417 16.104C73.6177 16.7387 74.5324 17.644 75.1857 18.82C75.8577 19.996 76.1937 21.368 76.1937 22.936ZM71.2937 21.676C71.2937 20.8547 71.0137 20.2013 70.4537 19.716C69.8937 19.2307 69.1937 18.988 68.3537 18.988C67.551 18.988 66.8697 19.2213 66.3097 19.688C65.7684 20.1547 65.4324 20.8173 65.3017 21.676H71.2937Z" fill="#222222"/>
<path d="M97.4748 15.18V19.156H103.887V22.852H97.4748V27.164H104.727V31H92.6868V11.344H104.727V15.18H97.4748ZM118.139 15.208C119.931 15.208 121.369 15.8053 122.451 17C123.534 18.176 124.075 19.8 124.075 21.872V31H119.315V22.516C119.315 21.4707 119.045 20.6587 118.503 20.08C117.962 19.5013 117.234 19.212 116.319 19.212C115.405 19.212 114.677 19.5013 114.135 20.08C113.594 20.6587 113.323 21.4707 113.323 22.516V31H108.535V10.28H113.323V17.476C113.809 16.7853 114.471 16.2347 115.311 15.824C116.151 15.4133 117.094 15.208 118.139 15.208ZM130.51 13.752C129.67 13.752 128.98 13.5093 128.438 13.024C127.916 12.52 127.654 11.904 127.654 11.176C127.654 10.4293 127.916 9.81333 128.438 9.328C128.98 8.824 129.67 8.572 130.51 8.572C131.332 8.572 132.004 8.824 132.526 9.328C133.068 9.81333 133.338 10.4293 133.338 11.176C133.338 11.904 133.068 12.52 132.526 13.024C132.004 13.5093 131.332 13.752 130.51 13.752ZM132.89 15.376V31H128.102V15.376H132.89ZM141.54 27.052H148.316V31H136.192V27.192L142.688 19.324H136.248V15.376H148.176V19.184L141.54 27.052ZM158.763 31.224C157.232 31.224 155.851 30.8973 154.619 30.244C153.406 29.5907 152.444 28.6573 151.735 27.444C151.044 26.2307 150.699 24.812 150.699 23.188C150.699 21.5827 151.054 20.1733 151.763 18.96C152.472 17.728 153.443 16.7853 154.675 16.132C155.907 15.4787 157.288 15.152 158.819 15.152C160.35 15.152 161.731 15.4787 162.963 16.132C164.195 16.7853 165.166 17.728 165.875 18.96C166.584 20.1733 166.939 21.5827 166.939 23.188C166.939 24.7933 166.575 26.212 165.847 27.444C165.138 28.6573 164.158 29.5907 162.907 30.244C161.675 30.8973 160.294 31.224 158.763 31.224ZM158.763 27.08C159.678 27.08 160.452 26.744 161.087 26.072C161.74 25.4 162.067 24.4387 162.067 23.188C162.067 21.9373 161.75 20.976 161.115 20.304C160.499 19.632 159.734 19.296 158.819 19.296C157.886 19.296 157.111 19.632 156.495 20.304C155.879 20.9573 155.571 21.9187 155.571 23.188C155.571 24.4387 155.87 25.4 156.467 26.072C157.083 26.744 157.848 27.08 158.763 27.08ZM176.115 15.152C177.216 15.152 178.178 15.376 178.999 15.824C179.839 16.272 180.483 16.86 180.931 17.588V15.376H185.719V30.972C185.719 32.4093 185.43 33.7067 184.851 34.864C184.291 36.04 183.423 36.9733 182.247 37.664C181.09 38.3547 179.643 38.7 177.907 38.7C175.592 38.7 173.716 38.1493 172.279 37.048C170.842 35.9653 170.02 34.4907 169.815 32.624H174.547C174.696 33.2213 175.051 33.688 175.611 34.024C176.171 34.3787 176.862 34.556 177.683 34.556C178.672 34.556 179.456 34.2667 180.035 33.688C180.632 33.128 180.931 32.2227 180.931 30.972V28.76C180.464 29.488 179.82 30.0853 178.999 30.552C178.178 31 177.216 31.224 176.115 31.224C174.827 31.224 173.66 30.8973 172.615 30.244C171.57 29.572 170.739 28.6293 170.123 27.416C169.526 26.184 169.227 24.7653 169.227 23.16C169.227 21.5547 169.526 20.1453 170.123 18.932C170.739 17.7187 171.57 16.7853 172.615 16.132C173.66 15.4787 174.827 15.152 176.115 15.152ZM180.931 23.188C180.931 21.9933 180.595 21.0507 179.923 20.36C179.27 19.6693 178.467 19.324 177.515 19.324C176.563 19.324 175.751 19.6693 175.079 20.36C174.426 21.032 174.099 21.9653 174.099 23.16C174.099 24.3547 174.426 25.3067 175.079 26.016C175.751 26.7067 176.563 27.052 177.515 27.052C178.467 27.052 179.27 26.7067 179.923 26.016C180.595 25.3253 180.931 24.3827 180.931 23.188ZM192.291 13.752C191.451 13.752 190.76 13.5093 190.219 13.024C189.696 12.52 189.435 11.904 189.435 11.176C189.435 10.4293 189.696 9.81333 190.219 9.328C190.76 8.824 191.451 8.572 192.291 8.572C193.112 8.572 193.784 8.824 194.307 9.328C194.848 9.81333 195.119 10.4293 195.119 11.176C195.119 11.904 194.848 12.52 194.307 13.024C193.784 13.5093 193.112 13.752 192.291 13.752ZM194.671 15.376V31H189.883V15.376H194.671ZM213.569 22.936C213.569 23.384 213.541 23.8507 213.485 24.336H202.649C202.723 25.3067 203.031 26.0533 203.573 26.576C204.133 27.08 204.814 27.332 205.617 27.332C206.811 27.332 207.642 26.828 208.109 25.82H213.205C212.943 26.8467 212.467 27.7707 211.777 28.592C211.105 29.4133 210.255 30.0573 209.229 30.524C208.202 30.9907 207.054 31.224 205.785 31.224C204.254 31.224 202.891 30.8973 201.697 30.244C200.502 29.5907 199.569 28.6573 198.897 27.444C198.225 26.2307 197.889 24.812 197.889 23.188C197.889 21.564 198.215 20.1453 198.869 18.932C199.541 17.7187 200.474 16.7853 201.669 16.132C202.863 15.4787 204.235 15.152 205.785 15.152C207.297 15.152 208.641 15.4693 209.817 16.104C210.993 16.7387 211.907 17.644 212.561 18.82C213.233 19.996 213.569 21.368 213.569 22.936ZM208.669 21.676C208.669 20.8547 208.389 20.2013 207.829 19.716C207.269 19.2307 206.569 18.988 205.729 18.988C204.926 18.988 204.245 19.2213 203.685 19.688C203.143 20.1547 202.807 20.8173 202.677 21.676H208.669Z" fill="#F48C06"/>
<path d="M74 42C84.3666 53.3194 112.28 69.1664 141 42" stroke="black" stroke-width="5" stroke-linecap="round"/>
</svg>
